<svg width="18" height="18" viewBox="0 0 18 18" fill="none" xmlns="http://www.w3.org/2000/svg">
<path d="M3.64477 1.64477C3.28867 1.28867 2.71133 1.28867 2.35523 1.64477C0.430014 3.56999 0.213407 6.61788 1.84701 8.79601L3.02857 10.3714C4.33622 12.115 5.88504 13.6638 7.62857 14.9714L9.20399 16.153C11.3821 17.7866 14.43 17.57 16.3552 15.6448C16.7113 15.2887 16.7113 14.7113 16.3552 14.3552L13.7071 11.7071C13.3166 11.3166 12.6834 11.3166 12.2929 11.7071L11.2717 12.7283C11.1095 12.8905 10.8615 12.9308 10.6563 12.8281C8.28294 11.6415 6.35853 9.71706 5.17187 7.34373C5.06923 7.13846 5.10946 6.89054 5.27175 6.72825L6.29289 5.70711C6.68342 5.31658 6.68342 4.68342 6.29289 4.29289L3.64477 1.64477Z" fill="#006A60" stroke="#006A60"/>
</svg>
