<svg width="24" height="24" viewBox="0 0 24 24" fill="none" xmlns="http://www.w3.org/2000/svg">
<path d="M5.04044 1.70711C4.64992 1.31658 4.01675 1.31658 3.62623 1.70711L2.67963 2.65371C0.568274 4.76506 0.330722 8.10763 2.12226 10.4964L5.02857 14.3714C6.33622 16.115 7.88504 17.6638 9.62857 18.9714L13.5037 21.8777C15.8924 23.6693 19.2349 23.4317 21.3463 21.3204L22.2929 20.3738C22.6834 19.9832 22.6834 19.3501 22.2929 18.9596L18.3738 15.0404C17.9832 14.6499 17.3501 14.6499 16.9596 15.0404L15.3623 16.6377C15.146 16.8541 14.8154 16.9077 14.5417 16.7708C11.3773 15.1886 8.81137 12.6227 7.22916 9.45831C7.09231 9.18461 7.14595 8.85405 7.36233 8.63767L8.95956 7.04044C9.35008 6.64992 9.35008 6.01675 8.95956 5.62623L5.04044 1.70711Z" fill="#006A60" stroke="#006A60"/>
</svg>
