<svg width="22" height="24" viewBox="0 0 22 24" fill="none" xmlns="http://www.w3.org/2000/svg">
<path fill-rule="evenodd" clip-rule="evenodd" d="M11.3984 23.8075C13.3158 22.8425 21.5 18.2683 21.5 10.5C21.5 4.70101 16.799 0 11 0C5.20101 0 0.5 4.70101 0.5 10.5C0.5 18.2683 8.68423 22.8425 10.6016 23.8075C10.856 23.9355 11.144 23.9355 11.3984 23.8075ZM11 15C13.4853 15 15.5 12.9853 15.5 10.5C15.5 8.01472 13.4853 6 11 6C8.51472 6 6.5 8.01472 6.5 10.5C6.5 12.9853 8.51472 15 11 15Z" fill="#006A60"/>
</svg>
