<svg width="50" height="52" viewBox="0 0 50 52" fill="none" xmlns="http://www.w3.org/2000/svg">
<path d="M9.10126 4.77209C6.40051 4.77209 4.18994 7.0773 4.18994 9.89368V42.6718C4.18994 45.4882 6.40051 47.7934 9.10126 47.7934H25.6348C25.7408 47.8117 25.8491 47.8117 25.9552 47.7934H31.5284C31.6344 47.8117 31.7427 47.8117 31.8487 47.7934H40.5337C43.2345 47.7934 45.4451 45.4882 45.4451 42.6718V9.89368C45.4451 7.0773 43.2345 4.77209 40.5337 4.77209H9.10126ZM9.10126 6.82073H40.5337C42.1726 6.82073 43.4805 8.18462 43.4805 9.89368V42.6718C43.4805 44.3808 42.1726 45.7447 40.5337 45.7447H32.6756V31.4043H36.4282L37.8037 24.2341H32.6756V22.1855C32.6756 21.6144 32.7277 21.5698 32.9116 21.4452C33.0955 21.3207 33.6636 21.1612 34.6401 21.1612H37.5869V15.3934L37.0267 15.1153C37.0267 15.1153 34.7704 13.9909 31.6934 13.9909C29.4833 13.9909 27.6676 14.9092 26.5058 16.4237C25.3439 17.9382 24.8175 19.9661 24.8175 22.1855V24.2341H21.8707V31.4043H24.8175V45.7447H9.10126C7.46237 45.7447 6.15447 44.3808 6.15447 42.6718V9.89368C6.15447 8.18462 7.46237 6.82073 9.10126 6.82073ZM31.6934 16.0396C33.7355 16.0396 35.0206 16.5092 35.6224 16.7578V19.1125H34.6401C33.5097 19.1125 32.6039 19.21 31.8411 19.7267C31.0783 20.2434 30.7111 21.2241 30.7111 22.1855V26.2827H35.4056L34.8166 29.3557H30.7111V45.7447H26.782V29.3557H23.8352V26.2827H26.782V22.1855C26.782 20.3076 27.2379 18.7504 28.0406 17.7041C28.8432 16.6578 29.9744 16.0396 31.6934 16.0396Z" fill="white"/>
</svg>
