<svg width="50" height="52" viewBox="0 0 50 52" fill="none" xmlns="http://www.w3.org/2000/svg">
<path d="M16.307 3.7478C9.26664 3.7478 3.5376 9.72211 3.5376 17.0639V35.5016C3.5376 42.8434 9.26664 48.8177 16.307 48.8177H33.9878C41.0282 48.8177 46.7572 42.8434 46.7572 35.5016V17.0639C46.7572 9.72211 41.0282 3.7478 33.9878 3.7478H16.307ZM16.307 5.79643H33.9878C39.9663 5.79643 44.7927 10.8294 44.7927 17.0639V35.5016C44.7927 41.7361 39.9663 46.7691 33.9878 46.7691H16.307C10.3285 46.7691 5.50213 41.7361 5.50213 35.5016V17.0639C5.50213 10.8294 10.3285 5.79643 16.307 5.79643ZM36.9346 11.9423C36.4136 11.9423 35.9139 12.1582 35.5455 12.5424C35.177 12.9266 34.9701 13.4476 34.9701 13.991C34.9701 14.5343 35.177 15.0554 35.5455 15.4396C35.9139 15.8238 36.4136 16.0396 36.9346 16.0396C37.4556 16.0396 37.9553 15.8238 38.3237 15.4396C38.6922 15.0554 38.8991 14.5343 38.8991 13.991C38.8991 13.4476 38.6922 12.9266 38.3237 12.5424C37.9553 12.1582 37.4556 11.9423 36.9346 11.9423ZM25.1474 15.0153C19.1917 15.0153 14.3425 20.072 14.3425 26.2828C14.3425 32.4935 19.1917 37.5502 25.1474 37.5502C31.1032 37.5502 35.9523 32.4935 35.9523 26.2828C35.9523 20.072 31.1032 15.0153 25.1474 15.0153ZM25.1474 17.0639C30.0415 17.0639 33.9878 21.1792 33.9878 26.2828C33.9878 31.3863 30.0415 35.5016 25.1474 35.5016C20.2534 35.5016 16.307 31.3863 16.307 26.2828C16.307 21.1792 20.2534 17.0639 25.1474 17.0639Z" fill="white"/>
</svg>
