<svg width="51" height="52" viewBox="0 0 51 52" fill="none" xmlns="http://www.w3.org/2000/svg">
<path d="M44.5208 6.73373C44.0424 6.75561 43.5767 6.89446 43.1568 7.06983C42.7411 7.24402 40.3481 8.30914 36.8143 9.8847C33.2804 11.4603 28.6867 13.512 24.1331 15.5464C15.0258 19.6154 6.07628 23.6189 6.07628 23.6189L6.14151 23.5929C6.14151 23.5929 5.60136 23.7812 5.05373 24.1791C4.77991 24.3781 4.48533 24.6349 4.24412 25.0094C4.00292 25.3838 3.82659 25.9145 3.89304 26.4758C4.12645 28.4474 6.08587 29.0066 6.08587 29.0066L6.09354 29.0106L14.838 32.1316C15.061 32.9072 17.4902 41.3624 18.0246 43.153C18.3197 44.1429 18.596 44.714 18.8841 45.1036C19.0283 45.2985 19.1794 45.4494 19.3464 45.5597C19.4128 45.6035 19.4826 45.6364 19.5517 45.6657C19.5532 45.6664 19.5541 45.6651 19.5556 45.6657C19.564 45.6696 19.572 45.67 19.5805 45.6737L19.5575 45.6677C19.5735 45.6745 19.5894 45.6859 19.6054 45.6917C19.6366 45.7031 19.6557 45.7027 19.6956 45.7118C20.6971 46.0764 21.5258 45.3997 21.5258 45.3997L21.5604 45.3716L26.9321 40.176L35.6497 47.2642L35.7591 47.3162C37.285 48.0228 38.6649 47.6286 39.4292 46.9801C40.1934 46.3317 40.4939 45.4957 40.4939 45.4957L40.5265 45.4077L46.9323 10.5909C47.0963 9.81199 47.1196 9.13869 46.965 8.53028C46.8104 7.92187 46.4348 7.39298 45.9635 7.09984C45.4922 6.80669 44.9992 6.71184 44.5208 6.73373ZM44.5726 8.81637C44.7669 8.80699 44.9109 8.83015 44.9563 8.85838C45.0017 8.88662 45.0221 8.8829 45.0657 9.05444C45.1092 9.22598 45.1328 9.5873 45.0139 10.1528L45.01 10.1648L38.6407 44.7795C38.6256 44.8143 38.4928 45.1345 38.1898 45.3917C37.8807 45.654 37.5368 45.8587 36.6243 45.4597L27.0914 37.7073L26.8228 37.4872L26.817 37.4932L23.9662 35.2625L39.9874 15.6065C40.1105 15.4558 40.1892 15.2712 40.2138 15.075C40.2384 14.8787 40.208 14.6792 40.1262 14.5006C40.0444 14.322 39.9148 14.1719 39.753 14.0685C39.5911 13.9651 39.404 13.9128 39.2143 13.9179C39.0289 13.923 38.8486 13.9826 38.6944 14.09L15.5114 30.207L6.7535 27.08C6.7535 27.08 5.88385 26.5753 5.84222 26.2237C5.83991 26.2043 5.82965 26.2219 5.87484 26.1517C5.92003 26.0816 6.03362 25.9631 6.17604 25.8596C6.46087 25.6527 6.78612 25.5275 6.78612 25.5275L6.81873 25.5155L6.85135 25.5015C6.85135 25.5015 15.8013 21.4978 24.9081 17.429C29.4616 15.3947 34.0545 13.3445 37.5874 11.7693C41.1194 10.1945 43.6716 9.06101 43.8877 8.97042C44.1337 8.86768 44.3783 8.82575 44.5726 8.81637ZM33.948 19.8518L21.7983 34.7584L21.7925 34.7644C21.7735 34.7882 21.7556 34.8129 21.7388 34.8384C21.7195 34.8661 21.7016 34.8948 21.6851 34.9244C21.6168 35.0452 21.5731 35.1794 21.5565 35.3185C21.5565 35.3212 21.5565 35.3239 21.5565 35.3265L19.9738 42.7488C19.9475 42.6686 19.9291 42.6393 19.9009 42.5448V42.5428C19.3982 40.8583 17.1062 32.8843 16.7891 31.7815L33.948 19.8518ZM23.17 37.2011L25.3532 38.9097L22.1455 42.0106L23.17 37.2011Z" fill="white"/>
</svg>
