<svg width="40" height="35" viewBox="0 0 40 35" fill="none" xmlns="http://www.w3.org/2000/svg">
<path d="M4.90135 19.8164L19.3153 33.3568C19.6398 33.6616 19.802 33.814 20 33.814C20.198 33.814 20.3602 33.6616 20.6847 33.3568L35.0986 19.8164L35.0988 19.8163C35.9732 18.9948 36.4105 18.5841 36.7458 18.1869C39.238 15.2356 39.5689 11.0231 37.5682 7.71885C37.2989 7.27416 36.9312 6.80015 36.1956 5.85213L35.5769 5.05468C35.0299 4.3497 34.7565 3.9972 34.5408 3.7609C30.8959 -0.232612 24.4213 0.464615 21.7103 5.14258C21.5498 5.41939 21.3577 5.82203 20.9733 6.6273C20.9134 6.75287 20.8834 6.81565 20.861 6.85371C20.4739 7.50879 19.5261 7.50879 19.139 6.85371C19.1166 6.81565 19.0866 6.75287 19.0267 6.6273C18.6423 5.82203 18.4502 5.41939 18.2897 5.14258C15.5787 0.464615 9.1041 -0.232612 5.45922 3.7609C5.24355 3.9972 4.97008 4.34968 4.42313 5.05463L4.42308 5.05469L3.80438 5.85214C3.06885 6.80015 2.70108 7.27416 2.43182 7.71885C0.431086 11.0231 0.762001 15.2356 3.25415 18.1869C3.58954 18.5841 4.02681 18.9949 4.90135 19.8164Z" fill="#006A60" stroke="#006A60" stroke-width="2"/>
</svg>
