<svg width="283" height="181" viewBox="0 0 283 181" fill="none" xmlns="http://www.w3.org/2000/svg">
<path d="M0 153.456C0 140.341 6.18046 124.929 18.5414 107.223C30.9023 89.5163 44.8896 72.7935 60.5034 57.0543C76.1172 41.3152 91.0805 27.8714 105.393 16.7228C120.356 5.57427 129.79 0 133.693 0C136.946 0 138.572 1.63949 138.572 4.91847C138.572 6.88588 137.597 8.85327 135.645 10.8207C133.693 12.1322 129.139 15.4112 121.983 20.6576C103.116 34.4293 87.8276 48.2011 76.1172 61.9728C65.0575 75.0888 59.2023 88.2047 58.5517 101.321C57.9011 117.716 56.6 131.159 54.6483 141.652C53.3471 151.489 51.0701 159.359 47.8172 165.261C45.2149 171.163 41.6368 175.426 37.0827 178.049C32.5287 180.016 26.9988 181 20.4931 181C13.3368 181 8.13218 178.377 4.87931 173.13C1.62644 167.228 0 160.67 0 153.456ZM144.428 153.456C144.428 140.341 150.608 124.929 162.969 107.223C175.33 89.5163 189.317 72.7935 204.931 57.0543C220.545 41.3152 235.508 27.8714 249.821 16.7228C264.784 5.57427 274.217 0 278.121 0C281.374 0 283 1.63949 283 4.91847C283 6.88588 282.024 8.85327 280.072 10.8207C278.121 12.1322 273.567 15.4112 266.41 20.6576C247.544 34.4293 232.255 48.2011 220.545 61.9728C209.485 75.0888 203.63 88.2047 202.979 101.321C202.329 117.716 201.028 131.159 199.076 141.652C197.775 151.489 195.498 159.359 192.245 165.261C189.643 171.163 186.064 175.426 181.51 178.049C176.956 180.016 171.426 181 164.921 181C157.764 181 152.56 178.377 149.307 173.13C146.054 167.228 144.428 160.67 144.428 153.456Z" fill="#006A60"/>
</svg>
