<?xml version="1.0" standalone="no"?>
<!DOCTYPE svg PUBLIC "-//W3C//DTD SVG 20010904//EN"
 "http://www.w3.org/TR/2001/REC-SVG-20010904/DTD/svg10.dtd">
<svg version="1.0" xmlns="http://www.w3.org/2000/svg"
 width="1080.000000pt" height="1080.000000pt" viewBox="0 0 1080.000000 1080.000000"
 preserveAspectRatio="xMidYMid meet">
<metadata>
Created by potrace 1.14, written by Peter Selinger 2001-2017
</metadata>
<g transform="translate(0.000000,1080.000000) scale(0.100000,-0.100000)"
fill="#000000" stroke="none">
<path d="M5128 10795 c-2 -1 -48 -6 -103 -9 -102 -6 -135 -9 -240 -21 -69 -7
-119 -14 -155 -20 -14 -3 -43 -7 -65 -10 -22 -3 -51 -7 -65 -10 -14 -3 -38 -8
-55 -10 -35 -6 -130 -24 -163 -31 -119 -24 -364 -89 -512 -135 -686 -216
-1354 -590 -1905 -1067 -156 -135 -451 -433 -576 -582 -587 -696 -985 -1502
-1168 -2362 -33 -153 -66 -341 -75 -423 -3 -27 -8 -75 -11 -105 -3 -30 -8 -68
-10 -85 -26 -188 -26 -868 0 -1045 2 -14 6 -54 9 -90 4 -36 8 -75 10 -85 5
-27 15 -102 21 -150 6 -45 12 -77 55 -285 43 -205 93 -392 160 -590 225 -670
587 -1298 1066 -1850 51 -59 394 -403 459 -460 503 -445 1036 -769 1669 -1017
90 -35 399 -139 439 -148 12 -2 74 -18 137 -35 111 -29 369 -84 440 -94 79
-11 118 -17 175 -26 33 -5 87 -12 120 -15 33 -3 76 -8 95 -10 212 -26 921 -26
1020 0 8 2 47 6 85 9 39 4 81 8 95 10 14 3 48 7 75 11 61 7 111 15 145 21 14
2 41 7 60 10 34 5 167 34 342 73 49 11 134 34 190 51 178 55 292 91 313 100
11 4 43 16 70 26 206 72 590 252 810 379 175 101 470 298 590 392 73 58 206
165 225 183 14 12 63 55 110 96 158 138 397 388 585 614 119 142 339 457 436
623 19 32 39 66 44 75 37 63 148 270 178 332 69 146 109 236 128 285 11 28 27
65 36 84 40 88 153 430 202 611 62 232 124 563 146 775 4 33 8 76 11 95 30
257 25 855 -11 1140 -3 25 -8 62 -10 83 -5 41 -51 325 -60 367 -35 179 -112
459 -181 665 -271 810 -780 1605 -1397 2180 -203 190 -252 232 -432 370 -607
467 -1359 821 -2085 981 -78 17 -321 63 -370 70 -19 2 -60 8 -90 14 -30 5 -82
11 -115 15 -33 3 -82 8 -110 11 -27 3 -72 7 -100 10 -54 5 -682 13 -687 9z"/>
</g>
</svg>
